<svg id="Group_178" data-name="Group 178" xmlns="http://www.w3.org/2000/svg" width="37.787" height="36.31" viewBox="0 0 37.787 36.31">
  <path id="Path_1556" data-name="Path 1556" d="M29.375,10.4V29.466H21.808a1.085,1.085,0,0,1-1.085-1.085V17.156H9.5a1.085,1.085,0,0,1-1.084-1.085V8.511H27.481A1.893,1.893,0,0,1,29.375,10.4ZM37.787,0H1.893A1.893,1.893,0,0,0,0,1.893V36.31H35.894a1.893,1.893,0,0,0,1.893-1.893Z" fill="#2c2c84"/>
  <path id="Path_1557" data-name="Path 1557" d="M30.964,38.73h7.567V19.661a1.894,1.894,0,0,0-1.893-1.887H17.569v7.568a1.085,1.085,0,0,0,1.084,1.084H29.879V37.653a1.085,1.085,0,0,0,1.085,1.084" transform="translate(-9.156 -9.263)" fill="#cbf15e"/>
</svg>
